<?xml version="1.0" encoding="UTF-8"?>
<svg xmlns="http://www.w3.org/2000/svg" xmlns:xlink="http://www.w3.org/1999/xlink" width="798pt" height="133.12pt" viewBox="0 0 798 133.12" version="1.1">
<defs>
<clipPath id="clip1">
  <path d="M 0 0 L 153 0 L 153 133.121094 L 0 133.121094 Z M 0 0 "/>
</clipPath>
</defs>
<g id="surface1">
<g clip-path="url(#clip1)" clip-rule="nonzero">
<path style=" stroke:none;fill-rule:evenodd;fill:rgb(85.499573%,16.099548%,15.299988%);fill-opacity:1;" d="M 28.605469 133.121094 C 28.515625 133.035156 28.421875 132.9375 28.332031 132.851563 C 28.195313 132.851563 28.105469 132.851563 28.015625 132.851563 L 25.871094 123.710938 C 25.871094 123.570313 25.871094 123.480469 25.871094 123.390625 C 25.820313 123.160156 25.773438 122.933594 25.773438 122.707031 C 45.515625 122.523438 65.265625 122.339844 85.050781 122.207031 L 108.128906 14.625 C 108.128906 14.488281 108.128906 14.394531 108.128906 14.304688 C 108.355469 10.332031 107.253906 9.320313 103.78125 7.679688 L 103.875 0.320313 C 119.917969 0.183594 135.960938 0.09375 152 0 L 152.097656 7.953125 L 148.984375 9.140625 C 146.835938 10.195313 145.554688 12.246094 145.324219 14.625 L 145.007813 16.136719 L 119.734375 133.121094 C 119.597656 133.121094 119.507813 133.121094 119.414063 133.121094 C 89.113281 133.121094 58.859375 133.121094 28.605469 133.121094 Z M 23.902344 114.832031 L 23.765625 114.25 L 0 0 C 12.160156 0 24.359375 0 36.558594 0 L 49.539063 60.371094 C 49.769531 60.371094 50.042969 60.371094 50.316406 60.371094 C 52.828125 53.605469 52.828125 53.605469 53.285156 51.78125 C 53.375 51.683594 53.46875 51.601563 53.605469 51.503906 C 53.605469 51.367188 53.605469 51.273438 53.605469 51.183594 C 53.695313 50.542969 53.785156 49.953125 53.929688 49.359375 C 54.023438 49.214844 54.113281 49.132813 54.203125 49.035156 C 54.203125 48.941406 54.203125 48.851563 54.203125 48.761719 C 54.707031 45.789063 55.207031 42.820313 55.753906 39.894531 C 55.753906 39.804688 55.753906 39.714844 55.753906 39.621094 C 55.753906 39.300781 55.753906 38.984375 55.753906 38.710938 C 55.84375 38.574219 55.9375 38.480469 56.027344 38.390625 C 56.027344 38.253906 56.027344 38.15625 56.027344 38.070313 C 56.027344 32.859375 56.027344 27.695313 56.027344 22.53125 C 56.027344 22.441406 56.027344 22.347656 56.027344 22.257813 C 55.9375 22.121094 55.84375 22.027344 55.753906 21.9375 C 55.753906 21.300781 55.753906 20.699219 55.753906 20.109375 C 55.753906 19.972656 55.753906 19.878906 55.753906 19.789063 C 55.617188 19.695313 55.527344 19.605469 55.433594 19.515625 C 55.433594 19.285156 55.433594 19.058594 55.433594 18.878906 C 55.433594 18.785156 55.433594 18.695313 55.433594 18.601563 C 55.296875 18.277344 55.207031 17.960938 55.117188 17.683594 L 51.78125 0 C 64.070313 0 76.367188 0 88.660156 0 L 95.972656 33.226563 C 95.972656 33.316406 95.972656 33.40625 95.972656 33.5 C 95.972656 33.683594 95.972656 33.910156 95.972656 34.136719 C 95.972656 34.230469 95.972656 34.320313 95.972656 34.410156 C 96.066406 34.503906 96.15625 34.59375 96.246094 34.730469 C 96.246094 35.011719 96.246094 35.328125 96.246094 35.648438 C 96.246094 35.738281 96.246094 35.832031 96.246094 35.96875 C 96.246094 36.148438 96.246094 36.332031 96.246094 36.5625 C 96.15625 36.652344 96.066406 36.742188 95.972656 36.878906 L 79.519531 115.164063 C 78.375 115.164063 77.234375 115.164063 76.132813 115.164063 C 76.050781 114.933594 75.953125 114.753906 75.859375 114.570313 C 75.859375 114.433594 75.859375 114.34375 75.859375 114.25 L 64.253906 54.929688 L 63.023438 54.382813 C 61.601563 55.070313 61.148438 57.585938 60.917969 59.089844 C 60.78125 59.089844 60.691406 59.089844 60.601563 59.089844 C 60.601563 59.179688 60.601563 59.273438 60.601563 59.410156 C 60.28125 60.511719 59.960938 61.605469 59.679688 62.742188 C 59.679688 62.839844 59.679688 62.925781 59.679688 63.0625 C 59.277344 64.164063 58.859375 65.257813 58.496094 66.40625 C 58.3125 66.632813 58.3125 66.632813 58.496094 66.722656 C 58.496094 66.996094 58.496094 67.316406 58.496094 67.636719 C 58.359375 67.726563 58.269531 67.816406 58.175781 67.953125 C 58.175781 68.046875 58.175781 68.136719 58.175781 68.226563 C 58.039063 68.734375 57.949219 69.238281 57.859375 69.785156 C 57.859375 69.875 57.859375 69.96875 57.859375 70.058594 C 57.859375 70.242188 57.859375 70.46875 57.859375 70.695313 C 57.765625 70.789063 57.675781 70.878906 57.585938 70.96875 C 57.402344 71.199219 57.402344 71.199219 57.585938 71.296875 C 57.585938 71.570313 57.585938 71.886719 57.585938 72.207031 C 57.449219 72.300781 57.355469 72.390625 57.265625 72.527344 C 57.265625 72.617188 57.265625 72.710938 57.265625 72.800781 C 57.265625 73.074219 57.265625 73.394531 57.265625 73.710938 C 57.265625 73.804688 57.265625 73.902344 57.265625 74.03125 C 57.265625 74.304688 57.265625 74.628906 57.265625 74.949219 C 57.128906 75.042969 57.035156 75.132813 56.945313 75.269531 C 56.945313 75.359375 56.945313 75.453125 56.945313 75.542969 C 56.945313 75.726563 56.945313 75.953125 56.945313 76.179688 C 56.945313 76.273438 56.945313 76.363281 56.945313 76.453125 C 56.945313 76.726563 56.945313 77.046875 56.945313 77.371094 C 56.855469 77.464844 56.757813 77.554688 56.671875 77.691406 C 56.671875 77.78125 56.671875 77.875 56.671875 78.011719 C 56.757813 82.578125 56.855469 87.148438 56.945313 91.722656 C 56.945313 91.8125 56.945313 91.902344 56.945313 91.996094 C 56.945313 92.679688 56.945313 93.410156 56.945313 94.144531 C 56.945313 94.234375 56.945313 94.328125 56.945313 94.464844 C 57.035156 94.554688 57.128906 94.644531 57.265625 94.738281 C 57.265625 95.421875 57.265625 96.152344 57.265625 96.886719 C 57.355469 96.976563 57.449219 97.070313 57.585938 97.207031 C 57.675781 97.796875 57.765625 98.390625 57.859375 99.03125 C 57.859375 99.121094 57.859375 99.210938 57.859375 99.308594 C 57.859375 99.492188 57.859375 99.71875 57.859375 99.949219 C 57.859375 100.039063 57.859375 100.128906 57.859375 100.222656 C 57.949219 100.3125 58.039063 100.402344 58.175781 100.542969 C 58.359375 101.636719 58.542969 102.734375 58.769531 103.875 C 58.769531 103.96875 58.769531 104.058594 58.769531 104.195313 C 59.460938 107.710938 60.191406 111.28125 60.917969 114.84375 C 60.917969 114.933594 60.917969 115.027344 60.917969 115.164063 C 60.78125 115.164063 60.691406 115.164063 60.601563 115.164063 C 48.402344 115.027344 36.058594 114.921875 23.902344 114.832031 "/>
</g>
<path style=" stroke:none;fill-rule:evenodd;fill:rgb(9.399414%,28.199768%,55.299377%);fill-opacity:1;" d="M 516.019531 121.695313 L 520.214844 118.980469 C 526.84375 114.09375 532.394531 109.875 536.777344 102.910156 C 536.777344 102.75 536.777344 102.585938 536.777344 102.417969 C 536.945313 102.167969 537.109375 102.007813 537.355469 101.835938 C 537.441406 82.460938 537.523438 63.160156 537.609375 43.863281 C 535.617188 39.972656 533.714844 36.078125 531.8125 32.269531 C 547.796875 32.269531 563.78125 32.269531 579.851563 32.269531 C 578.605469 34.917969 572.808594 43.453125 573.796875 46.097656 C 573.796875 46.265625 573.796875 46.429688 573.796875 46.597656 C 573.464844 46.597656 573.464844 46.597656 573.464844 96.289063 C 573.21875 98.109375 572.972656 99.933594 572.722656 101.835938 C 572.476563 102.007813 572.308594 102.167969 572.144531 102.417969 C 571.316406 104.574219 571.316406 104.574219 569.40625 107.386719 C 569.40625 107.554688 569.40625 107.71875 569.40625 107.886719 C 569.160156 108.050781 568.996094 108.214844 568.828125 108.46875 C 567.667969 109.542969 566.59375 110.617188 565.519531 111.777344 C 565.273438 111.945313 565.101563 112.109375 564.941406 112.355469 C 564.769531 112.523438 564.609375 112.6875 564.445313 112.851563 C 562.042969 114.34375 559.640625 115.835938 557.234375 117.324219 C 556.988281 117.324219 556.824219 117.324219 556.65625 117.324219 C 554.421875 117.988281 552.1875 118.734375 550.03125 119.480469 C 549.867188 119.644531 549.699219 119.808594 549.535156 120.0625 C 547.875 120.222656 546.222656 120.386719 544.566406 120.640625 C 544.316406 120.804688 544.148438 120.964844 543.984375 121.136719 C 543.738281 121.136719 543.570313 121.136719 543.40625 121.136719 C 542.828125 121.136719 542.246094 121.136719 541.746094 121.136719 C 541.582031 121.136719 541.414063 121.136719 541.25 121.136719 C 540.835938 121.136719 540.425781 121.136719 540.09375 121.136719 C 539.929688 121.136719 539.761719 121.136719 539.597656 121.136719 C 539.351563 121.296875 539.179688 121.46875 539.015625 121.714844 C 536.945313 121.714844 534.960938 121.714844 532.972656 121.714844 C 532.71875 121.878906 532.554688 122.046875 532.394531 122.296875 C 527.917969 122.125 523.441406 121.964844 518.976563 121.800781 Z M 329.722656 112.851563 C 329.554688 112.851563 329.390625 112.851563 329.222656 112.851563 C 326.578125 111.527344 324.003906 110.285156 321.4375 109.046875 C 321.277344 108.792969 321.105469 108.628906 320.945313 108.46875 C 320.695313 108.214844 320.527344 108.050781 320.363281 107.886719 C 320.363281 107.71875 320.363281 107.554688 320.363281 107.386719 C 320.117188 107.140625 319.949219 106.976563 319.785156 106.808594 C 319.621094 106.558594 319.453125 106.390625 319.289063 106.226563 C 318.871094 105.808594 318.460938 105.484375 318.128906 105.152344 C 317.960938 104.90625 317.796875 104.734375 317.628906 104.574219 C 317.382813 104.402344 317.21875 104.242188 317.050781 104.070313 C 316.800781 103.824219 316.640625 103.660156 316.46875 103.492188 C 316.46875 103.242188 316.46875 103.082031 316.46875 102.910156 C 315.644531 101.835938 315.484375 101.882813 314.320313 97.445313 C 314.152344 96.816406 313.910156 96.933594 313.738281 96.289063 C 313.40625 95.050781 313.269531 94.28125 313.160156 92.980469 C 312.5625 86.203125 314.898438 82.210938 318.128906 76.414063 C 318.292969 76.246094 318.460938 76.082031 318.710938 75.914063 C 318.871094 75.667969 319.042969 75.503906 319.289063 75.335938 C 319.621094 74.925781 319.949219 74.589844 320.363281 74.257813 C 320.527344 74.011719 320.695313 73.84375 320.945313 73.679688 C 321.105469 73.433594 321.277344 73.261719 321.4375 73.101563 C 324.585938 71.113281 328.148438 68.625 331.957031 68.128906 C 332.128906 68.128906 332.289063 68.128906 332.539063 68.128906 C 332.871094 67.960938 333.203125 67.796875 333.617188 67.636719 C 333.78125 67.382813 333.945313 67.21875 334.199219 67.054688 C 334.363281 67.054688 334.523438 67.054688 334.695313 67.054688 C 336.347656 66.800781 338.003906 66.640625 339.664063 66.476563 C 339.824219 66.476563 339.996094 66.476563 340.242188 66.476563 C 340.738281 66.476563 341.316406 66.476563 341.898438 66.476563 C 342.066406 66.476563 342.230469 66.476563 342.476563 66.476563 C 342.644531 66.308594 342.808594 66.144531 342.972656 65.972656 C 347.941406 65.726563 352.910156 65.5625 357.882813 65.394531 C 358.050781 65.394531 358.214844 65.394531 358.460938 65.394531 C 358.628906 65.148438 358.792969 64.984375 359.039063 64.816406 C 359.371094 64.816406 359.703125 64.816406 360.121094 64.816406 C 360.285156 64.816406 360.449219 64.816406 360.703125 64.816406 C 361.605469 64.816406 362.519531 64.816406 363.429688 64.816406 C 363.601563 64.816406 363.761719 64.816406 364.011719 64.816406 C 364.179688 64.816406 364.34375 64.816406 364.503906 64.816406 C 364.675781 64.652344 364.835938 64.484375 365.085938 64.320313 C 367.242188 64.074219 369.480469 63.902344 371.714844 63.742188 C 371.878906 63.742188 372.046875 63.742188 372.296875 63.742188 C 372.628906 63.492188 372.960938 63.324219 373.371094 63.160156 C 373.539063 62.992188 373.703125 62.828125 373.949219 62.664063 C 374.117188 62.664063 374.28125 62.664063 374.445313 62.664063 C 377.675781 60.261719 378.425781 59.101563 379.414063 55.457031 C 379.585938 55.457031 379.746094 55.457031 379.992188 55.457031 C 379.992188 55.207031 379.992188 55.046875 379.992188 54.875 C 379.992188 54.296875 379.992188 53.714844 379.992188 53.222656 C 379.746094 53.050781 379.585938 52.890625 379.414063 52.726563 C 379.003906 48.667969 376.847656 47.339844 373.949219 44.9375 C 373.703125 44.773438 373.539063 44.609375 373.371094 44.441406 C 372.046875 44.195313 370.71875 44.03125 369.480469 43.863281 C 369.3125 43.863281 369.148438 43.863281 368.980469 43.863281 C 368.398438 43.863281 367.820313 43.863281 367.324219 43.863281 C 367.078125 43.863281 366.910156 43.863281 366.746094 43.863281 C 366.5 44.03125 366.328125 44.195313 366.167969 44.441406 C 365.75 44.441406 365.417969 44.441406 365.085938 44.441406 C 364.835938 44.441406 364.675781 44.441406 364.503906 44.441406 C 364.09375 44.441406 363.761719 44.441406 363.429688 44.441406 C 363.183594 44.441406 363.019531 44.441406 362.851563 44.441406 C 362.6875 44.609375 362.519531 44.773438 362.355469 44.9375 C 361.777344 44.9375 361.195313 44.9375 360.703125 44.9375 C 360.449219 44.9375 360.285156 44.9375 360.121094 44.9375 C 359.371094 45.105469 358.628906 45.269531 357.882813 45.515625 C 357.71875 45.6875 357.550781 45.847656 357.386719 46.097656 C 357.140625 46.097656 356.96875 46.097656 356.808594 46.097656 C 355.648438 46.265625 354.574219 46.429688 353.492188 46.597656 C 353.242188 46.761719 353.082031 46.929688 352.910156 47.175781 C 350.847656 47.671875 348.855469 48.253906 346.867188 48.832031 C 346.371094 48.5 346.371094 48.5 346.289063 48.832031 C 345.128906 49.328125 344.054688 49.90625 342.972656 50.484375 C 342.808594 50.65625 342.644531 50.816406 342.476563 51.066406 C 339.160156 51.816406 339.160156 51.816406 334.695313 53.800781 C 334.277344 53.46875 334.277344 53.46875 334.199219 53.800781 C 333.945313 53.972656 333.78125 54.132813 333.617188 54.382813 C 330.054688 56.035156 326.578125 57.695313 323.101563 59.351563 L 342.3125 28.210938 C 345.214844 28.621094 345.214844 28.621094 351.257813 30.613281 C 351.425781 30.777344 351.589844 30.941406 351.835938 31.191406 C 352.332031 31.191406 352.910156 31.191406 353.492188 31.191406 C 353.492188 31.355469 353.492188 31.519531 353.492188 31.6875 C 353.660156 31.6875 353.824219 31.6875 354.070313 31.6875 C 358.296875 32.019531 362.519531 32.429688 366.746094 32.847656 C 366.910156 32.847656 367.078125 32.847656 367.324219 32.847656 C 367.488281 32.601563 367.65625 32.429688 367.820313 32.269531 C 368.902344 32.269531 369.976563 32.269531 371.136719 32.269531 C 371.300781 32.269531 371.46875 32.269531 371.714844 32.269531 C 371.878906 32.019531 372.046875 31.851563 372.296875 31.6875 C 374.613281 31.109375 377.019531 30.527344 379.414063 30.035156 C 379.585938 30.035156 379.746094 30.035156 379.992188 30.035156 C 380.324219 30.035156 380.660156 30.035156 381.074219 30.035156 C 381.238281 30.035156 381.402344 30.035156 381.65625 30.035156 C 381.816406 29.863281 381.980469 29.703125 382.234375 29.53125 C 388.695313 29.617188 394.570313 30.035156 400.945313 31.191406 C 401.117188 31.191406 401.28125 31.191406 401.527344 31.191406 C 401.695313 31.355469 401.859375 31.519531 402.113281 31.6875 C 404.261719 32.515625 404.261719 32.515625 404.261719 32.847656 C 404.433594 32.847656 404.59375 32.847656 404.84375 32.847656 C 406.503906 33.761719 408.15625 34.671875 409.8125 35.578125 C 409.980469 35.578125 410.144531 35.578125 410.390625 35.578125 C 410.5625 35.746094 410.722656 35.914063 410.886719 36.164063 C 411.054688 36.324219 411.21875 36.496094 411.464844 36.660156 C 412.546875 38.480469 413.621094 40.300781 414.78125 42.207031 C 414.78125 42.371094 414.78125 42.539063 414.78125 42.789063 C 414.945313 42.949219 415.113281 43.121094 415.359375 43.28125 C 415.359375 43.613281 415.359375 44.03125 415.359375 44.441406 C 415.027344 44.773438 415.027344 44.773438 415.359375 44.9375 C 415.445313 63.65625 415.523438 82.460938 415.609375 101.257813 C 417.679688 105.152344 420.222656 109.515625 422.292969 113.40625 L 389.933594 113.429688 C 389.4375 113.105469 389.4375 113.105469 389.355469 113.429688 C 389.191406 113.429688 389.019531 113.429688 388.859375 113.429688 C 388.097656 112.667969 387.707031 112.851563 386.625 112.851563 C 386.378906 112.851563 386.207031 112.851563 386.046875 112.851563 C 385.464844 112.441406 384.878906 112.109375 384.382813 111.777344 C 384.222656 111.527344 384.058594 111.367188 383.890625 111.195313 C 383.640625 111.035156 383.472656 110.863281 383.308594 110.703125 C 382.066406 109.625 382.066406 109.625 380.574219 106.808594 C 380.574219 106.558594 380.574219 106.390625 380.574219 106.226563 C 380.324219 106.0625 380.164063 105.894531 379.992188 105.730469 C 379.992188 105.152344 379.992188 104.574219 379.992188 104.070313 C 379.992188 103.824219 379.992188 103.660156 379.992188 103.492188 C 379.992188 102.167969 379.992188 100.847656 379.992188 99.601563 C 379.746094 99.601563 379.585938 99.601563 379.414063 99.601563 C 379.25 99.601563 379.082031 99.601563 378.917969 99.601563 C 372.789063 104.324219 372.789063 104.324219 369.480469 106.226563 C 369.3125 106.390625 369.148438 106.558594 368.980469 106.808594 C 366.167969 108.050781 363.429688 109.375 360.703125 110.703125 C 360.199219 110.371094 360.199219 110.371094 360.121094 110.703125 C 360.121094 110.863281 360.121094 111.035156 360.121094 111.195313 C 356.808594 112.109375 353.492188 113.019531 350.183594 114.011719 C 349.6875 113.683594 349.6875 113.683594 349.601563 114.011719 C 348.273438 114.179688 347.03125 114.34375 345.792969 114.511719 C 345.546875 114.511719 345.375 114.511719 345.214844 114.511719 C 344.964844 114.511719 344.796875 114.511719 344.632813 114.511719 C 344.464844 114.675781 344.300781 114.84375 344.132813 115.089844 C 339.160156 114.757813 334.363281 114.589844 329.722656 112.851563 Z M 471.101563 115.089844 C 470.855469 114.84375 470.6875 114.675781 470.523438 114.511719 C 470.355469 114.511719 470.191406 114.511719 470.019531 114.511719 C 469.441406 114.511719 468.863281 114.511719 468.367188 114.511719 C 468.117188 114.511719 467.957031 114.511719 467.785156 114.511719 C 464.226563 113.933594 460.746094 113.351563 457.269531 112.851563 C 457.105469 112.851563 456.9375 112.851563 456.773438 112.851563 C 454.703125 112.109375 452.632813 111.367188 450.644531 110.703125 C 450.476563 110.703125 450.3125 110.703125 450.148438 110.703125 C 448.488281 109.707031 446.835938 108.792969 445.179688 107.886719 C 444.933594 107.886719 444.761719 107.886719 444.601563 107.886719 C 444.351563 107.71875 444.183594 107.554688 444.019531 107.386719 C 442.527344 106.390625 441.035156 105.484375 439.628906 104.574219 C 439.382813 104.402344 439.214844 104.242188 439.050781 104.070313 C 438.882813 103.660156 438.71875 103.242188 438.554688 102.910156 C 438.300781 102.910156 438.140625 102.910156 437.976563 102.910156 C 437.722656 102.75 437.558594 102.585938 437.394531 102.417969 C 437.226563 102.167969 437.058594 102.007813 436.894531 101.835938 C 436.648438 101.589844 436.476563 101.425781 436.3125 101.257813 C 431.925781 96.703125 429.441406 92.066406 426.953125 86.347656 C 426.953125 86.183594 426.953125 86.015625 426.953125 85.851563 C 426.546875 83.78125 426.128906 81.710938 425.796875 79.722656 C 425.796875 79.5625 425.796875 79.390625 425.796875 79.230469 C 425.632813 78.980469 425.464844 78.8125 425.300781 78.648438 C 425.300781 78.234375 425.300781 77.902344 425.300781 77.574219 C 425.300781 77.320313 425.300781 77.15625 425.300781 76.996094 C 425.300781 73.433594 425.300781 69.953125 425.300781 66.476563 C 425.464844 66.308594 425.632813 66.144531 425.796875 65.972656 C 425.796875 65.726563 425.796875 65.5625 425.796875 65.394531 C 425.796875 64.984375 425.796875 64.652344 425.796875 64.320313 C 425.796875 64.074219 425.796875 63.902344 425.796875 63.742188 C 426.128906 62.085938 426.546875 60.425781 426.953125 58.769531 C 426.953125 58.523438 426.953125 58.355469 426.953125 58.191406 C 427.125 58.027344 427.285156 57.859375 427.457031 57.695313 C 428.53125 55.046875 429.605469 52.472656 430.765625 49.90625 C 430.933594 49.742188 431.097656 49.574219 431.34375 49.410156 C 431.515625 49.164063 431.679688 48.996094 431.925781 48.832031 C 432.589844 47.671875 433.332031 46.597656 434.082031 45.515625 C 434.242188 45.269531 434.414063 45.105469 434.660156 44.9375 C 434.992188 44.527344 435.316406 44.195313 435.734375 43.863281 C 435.898438 43.613281 436.066406 43.453125 436.3125 43.28125 C 436.648438 43.28125 436.980469 43.28125 437.394531 43.28125 C 437.394531 42.871094 437.394531 42.539063 437.394531 42.207031 C 438.804688 41.628906 438.804688 41.628906 439.628906 40.554688 C 439.792969 40.554688 439.960938 40.554688 440.210938 40.554688 C 444.019531 38.066406 444.019531 38.066406 445.179688 37.816406 C 445.34375 37.570313 445.511719 37.402344 445.675781 37.238281 C 445.835938 36.992188 446.007813 36.820313 446.253906 36.660156 C 446.996094 36.496094 447.746094 36.324219 448.488281 36.164063 C 448.65625 35.914063 448.820313 35.746094 448.988281 35.578125 C 453.960938 33.589844 453.960938 33.589844 460.585938 31.6875 C 460.746094 31.6875 460.914063 31.6875 461.164063 31.6875 C 461.90625 31.6875 462.652344 31.6875 463.398438 31.6875 C 463.566406 31.519531 463.730469 31.355469 463.898438 31.191406 C 471.019531 30.941406 478.222656 30.777344 485.433594 30.613281 C 485.59375 30.777344 485.757813 30.941406 486.011719 31.191406 C 486.175781 31.191406 486.335938 31.191406 486.59375 31.191406 C 487.085938 31.191406 487.664063 31.191406 488.246094 31.191406 C 488.40625 31.191406 488.578125 31.191406 488.738281 31.191406 C 489.234375 31.191406 489.816406 31.191406 490.394531 31.191406 C 490.394531 31.355469 490.394531 31.519531 490.394531 31.6875 C 490.5625 31.6875 490.734375 31.6875 490.980469 31.6875 C 495.949219 32.515625 495.949219 32.515625 495.949219 32.847656 C 496.113281 32.847656 496.277344 32.847656 496.53125 32.847656 C 500.257813 34.007813 512.183594 37.324219 513.589844 41.132813 C 513.753906 41.296875 513.921875 41.457031 514.167969 41.628906 C 514.5 41.960938 514.832031 42.371094 515.242188 42.789063 C 515.414063 42.789063 515.574219 42.789063 515.824219 42.789063 C 516.15625 42.949219 518.472656 45.191406 518.558594 45.515625 C 518.558594 45.6875 518.558594 45.847656 518.558594 46.097656 C 518.890625 46.429688 519.300781 46.761719 519.71875 47.175781 C 519.882813 47.339844 520.050781 47.507813 520.214844 47.757813 C 523.441406 52.972656 526.179688 57.613281 527.421875 63.742188 C 527.421875 63.902344 527.421875 64.074219 527.421875 64.320313 C 527.585938 64.484375 527.757813 64.652344 528.003906 64.816406 C 528.003906 65.316406 528.003906 65.894531 528.003906 66.476563 C 527.671875 66.886719 527.671875 66.886719 528.003906 67.054688 C 528.003906 67.382813 528.003906 67.714844 528.003906 68.128906 C 528.164063 68.292969 528.335938 68.460938 528.496094 68.710938 C 528.496094 70.867188 528.496094 73.101563 528.496094 75.335938 C 528.335938 75.503906 528.164063 75.667969 528.003906 75.914063 C 528.003906 76.824219 528.003906 77.738281 528.003906 78.648438 C 527.671875 79.058594 527.671875 79.058594 528.003906 79.230469 C 528.003906 79.390625 528.003906 79.5625 528.003906 79.722656 C 527.757813 79.894531 527.585938 80.054688 527.421875 80.304688 C 526.84375 83.039063 526.265625 85.769531 525.761719 88.589844 C 525.515625 88.75 525.351563 88.921875 525.183594 89.167969 C 523.527344 91.898438 521.875 94.632813 520.214844 97.445313 C 520.050781 97.617188 519.882813 97.777344 519.71875 97.949219 C 519.472656 98.109375 519.300781 98.273438 519.140625 98.527344 C 518.890625 99.023438 518.722656 99.601563 518.558594 100.183594 C 518.394531 100.34375 518.226563 100.515625 518.0625 100.761719 C 517.3125 101.257813 516.570313 101.835938 515.824219 102.417969 C 515.328125 102.085938 515.328125 102.085938 515.242188 102.417969 C 515.082031 102.585938 514.910156 102.75 514.746094 102.910156 C 512.847656 104.402344 511.023438 105.894531 509.199219 107.386719 C 508.949219 107.386719 508.789063 107.386719 508.617188 107.386719 C 508.449219 107.554688 508.285156 107.71875 508.125 107.886719 C 507.871094 108.050781 507.707031 108.214844 507.546875 108.46875 C 507.289063 108.46875 507.128906 108.46875 506.964844 108.46875 C 505.140625 109.210938 503.316406 109.953125 501.492188 110.703125 C 501.246094 110.453125 501.082031 110.285156 500.914063 110.121094 C 500.914063 110.285156 500.914063 110.453125 500.914063 110.703125 C 498.347656 111.613281 495.78125 112.523438 493.214844 113.429688 C 492.96875 113.429688 492.800781 113.429688 492.636719 113.429688 C 492.21875 113.429688 491.894531 113.429688 491.5625 113.429688 C 491.3125 113.429688 491.144531 113.429688 490.980469 113.429688 C 490.734375 113.601563 490.5625 113.761719 490.394531 114.011719 C 489.652344 114.011719 488.910156 114.011719 488.246094 114.011719 C 487.996094 114.011719 487.828125 114.011719 487.664063 114.011719 C 487.417969 114.179688 487.25 114.34375 487.085938 114.511719 C 486.671875 114.511719 486.335938 114.511719 486.011719 114.511719 C 485.757813 114.511719 485.59375 114.511719 485.433594 114.511719 C 480.625 114.675781 475.824219 114.84375 471.101563 115.089844 Z M 610.820313 115.089844 C 610.570313 114.84375 610.410156 114.675781 610.238281 114.511719 C 609.992188 114.511719 609.828125 114.511719 609.660156 114.511719 C 607.589844 113.933594 605.601563 113.351563 603.617188 112.851563 C 603.367188 112.6875 603.207031 112.523438 603.035156 112.355469 C 602.625 112.109375 602.292969 111.945313 601.960938 111.777344 C 601.714844 111.527344 601.546875 111.367188 601.382813 111.195313 C 600.964844 110.785156 600.632813 110.453125 600.308594 110.121094 C 600.054688 109.875 599.890625 109.707031 599.726563 109.542969 C 599.3125 109.375 598.980469 109.210938 598.644531 109.046875 C 598.398438 108.792969 598.234375 108.628906 598.066406 108.46875 C 596.90625 106.226563 595.832031 103.992188 594.753906 101.835938 C 594.753906 101.589844 594.753906 101.425781 594.753906 101.257813 C 594.589844 101.09375 594.425781 100.925781 594.257813 100.761719 C 594.257813 100.34375 594.257813 99.933594 594.257813 99.601563 C 594.257813 99.433594 594.257813 99.269531 594.257813 99.109375 C 594.09375 81.054688 594.007813 62.992188 593.925781 44.9375 C 592.6875 42.539063 591.527344 40.136719 590.367188 37.816406 C 590.113281 37.570313 589.949219 37.402344 589.789063 37.238281 C 589.039063 35.578125 588.296875 33.921875 587.632813 32.269531 C 603.617188 32.269531 619.601563 32.269531 635.667969 32.269531 L 636.566406 32.269531 L 635.089844 34.503906 C 633.765625 36.660156 632.4375 38.890625 631.199219 41.132813 C 631.199219 41.296875 631.199219 41.457031 631.199219 41.628906 C 631.03125 41.789063 630.867188 41.960938 630.699219 42.207031 C 630.289063 42.703125 629.871094 43.28125 629.539063 43.863281 C 629.539063 44.03125 629.539063 44.195313 629.539063 44.441406 C 629.785156 86.347656 629.785156 86.347656 630.117188 87.515625 C 633.433594 88.257813 633.433594 88.257813 635.667969 88.007813 C 635.839844 88.007813 636 88.007813 636.164063 88.007813 C 636.496094 88.007813 636.910156 88.007813 637.324219 88.007813 C 637.492188 88.007813 637.65625 88.007813 637.824219 88.007813 C 637.988281 87.839844 638.15625 87.675781 638.402344 87.515625 C 639.8125 86.765625 641.304688 86.015625 642.792969 85.273438 C 642.957031 85.027344 643.125 84.855469 643.375 84.695313 C 643.535156 84.695313 643.707031 84.695313 643.953125 84.695313 C 646.351563 82.460938 648.429688 80.636719 649.664063 77.574219 C 649.664063 66.476563 649.664063 55.457031 649.664063 44.441406 L 643.375 32.269531 C 659.355469 32.269531 675.339844 32.269531 691.410156 32.269531 L 692.359375 32.269531 C 690.433594 35.578125 687.546875 40.554688 685.613281 43.863281 C 685.695313 63.074219 685.773438 82.289063 685.859375 101.503906 L 691.410156 113.429688 L 658.863281 113.429688 C 658.609375 113.183594 658.445313 113.019531 658.28125 112.851563 C 658.027344 112.851563 657.867188 112.851563 657.703125 112.851563 C 656.789063 112.441406 655.878906 112.109375 654.96875 111.777344 C 654.71875 111.777344 654.550781 111.777344 654.386719 111.777344 C 654.226563 111.527344 654.054688 111.367188 653.894531 111.195313 C 653.644531 111.035156 653.476563 110.863281 653.3125 110.703125 C 653.066406 110.453125 652.894531 110.285156 652.734375 110.121094 C 651.488281 109.125 651.488281 109.125 650.578125 106.808594 C 650.328125 106.558594 650.167969 106.390625 649.996094 106.226563 C 649.996094 106.0625 649.996094 105.894531 649.996094 105.730469 C 649.996094 105.484375 649.996094 105.316406 649.996094 105.152344 C 649.996094 102.332031 649.996094 99.601563 649.996094 96.867188 C 649.417969 97.035156 648.839844 97.199219 648.34375 97.445313 C 648.089844 97.617188 647.925781 97.777344 647.765625 97.949219 C 647.59375 98.109375 647.433594 98.273438 647.261719 98.527344 C 645.941406 99.765625 644.609375 101.09375 643.375 102.417969 C 642.871094 102.085938 642.871094 102.085938 642.792969 102.417969 C 641.796875 103.574219 641.796875 103.574219 636.164063 107.386719 C 636 107.554688 635.839844 107.71875 635.667969 107.886719 C 635.421875 108.050781 635.257813 108.214844 635.089844 108.46875 C 632.523438 109.542969 629.957031 110.617188 627.382813 111.777344 C 627.136719 111.945313 626.972656 112.109375 626.804688 112.355469 C 626.558594 112.355469 626.394531 112.355469 626.222656 112.355469 C 626.0625 112.355469 625.898438 112.355469 625.730469 112.355469 C 625.480469 112.523438 625.316406 112.6875 625.148438 112.851563 C 623.828125 113.183594 622.496094 113.601563 621.261719 114.011719 C 620.84375 113.683594 620.84375 113.683594 620.761719 114.011719 C 620.347656 114.011719 619.933594 114.011719 619.601563 114.011719 C 619.4375 114.011719 619.269531 114.011719 619.105469 114.011719 C 618.855469 114.179688 618.6875 114.34375 618.523438 114.511719 C 615.960938 114.675781 613.386719 114.84375 610.820313 115.089844 Z M 742.761719 115.089844 C 742.511719 114.84375 742.34375 114.675781 742.179688 114.511719 C 742.011719 114.511719 741.847656 114.511719 741.679688 114.511719 C 733.398438 113.683594 733.398438 113.683594 726.777344 112.355469 C 726.523438 112.109375 726.359375 111.945313 726.195313 111.777344 C 725.941406 111.777344 725.78125 111.777344 725.617188 111.777344 C 725.199219 111.527344 724.867188 111.367188 724.535156 111.195313 C 724.289063 111.195313 724.125 111.195313 723.957031 111.195313 C 718.988281 109.292969 718.988281 109.292969 715.679688 107.386719 C 715.507813 107.140625 715.347656 106.976563 715.175781 106.808594 C 714.683594 106.472656 714.683594 106.472656 714.597656 106.808594 C 713.105469 105.894531 711.621094 104.984375 710.207031 104.070313 C 709.960938 103.824219 709.796875 103.660156 709.628906 103.492188 C 709.378906 103.242188 709.21875 103.082031 709.046875 102.910156 C 707.726563 101.753906 706.480469 100.675781 705.242188 99.601563 C 705.242188 99.433594 705.242188 99.269531 705.242188 99.109375 C 701.425781 93.472656 698.363281 88.589844 696.378906 81.957031 C 696.132813 81.710938 695.960938 81.546875 695.800781 81.378906 C 695.800781 81.214844 695.800781 81.054688 695.800781 80.882813 C 695.382813 76 694.972656 71.445313 695.304688 66.476563 C 695.46875 66.308594 695.628906 66.144531 695.800781 65.972656 C 695.800781 65.726563 695.800781 65.5625 695.800781 65.394531 C 695.960938 64.074219 696.132813 62.742188 696.378906 61.507813 C 696.378906 61.335938 696.378906 61.175781 696.378906 61.003906 C 696.542969 60.59375 696.710938 60.175781 696.960938 59.84375 C 697.121094 59.683594 697.289063 59.511719 697.453125 59.351563 C 697.453125 59.101563 697.453125 58.933594 697.453125 58.769531 C 700.769531 51.3125 700.769531 51.3125 701.347656 51.066406 C 701.511719 50.816406 701.679688 50.65625 701.929688 50.484375 C 701.929688 50.238281 701.929688 50.074219 701.929688 49.90625 C 708.554688 40.964844 718.660156 35.25 729.507813 32.847656 C 729.675781 32.847656 729.839844 32.847656 730.085938 32.847656 C 730.085938 32.515625 730.085938 32.515625 732.820313 31.6875 C 732.984375 31.6875 733.152344 31.6875 733.398438 31.6875 C 733.894531 31.6875 734.476563 31.6875 735.054688 31.6875 C 735.21875 31.519531 735.386719 31.355469 735.550781 31.191406 C 742.011719 30.941406 748.472656 30.777344 754.933594 30.613281 C 754.933594 30.777344 754.933594 30.941406 754.933594 31.191406 C 755.097656 31.191406 755.265625 31.191406 755.429688 31.191406 C 755.597656 31.191406 755.761719 31.191406 756.007813 31.191406 C 756.179688 31.191406 756.339844 31.191406 756.589844 31.191406 C 757.253906 31.191406 757.996094 31.191406 758.742188 31.191406 C 758.90625 31.191406 759.074219 31.191406 759.324219 31.191406 C 759.484375 31.355469 759.65625 31.519531 759.902344 31.6875 C 760.066406 31.6875 760.234375 31.6875 760.398438 31.6875 C 760.566406 31.6875 760.730469 31.6875 760.980469 31.6875 C 762.800781 32.019531 764.625 32.429688 766.527344 32.847656 C 766.527344 33.011719 766.527344 33.179688 766.527344 33.34375 C 766.695313 33.34375 766.859375 33.34375 767.023438 33.34375 C 767.355469 33.34375 767.769531 33.34375 768.183594 33.34375 C 768.351563 33.511719 768.515625 33.675781 768.683594 33.921875 C 773.320313 34.996094 777.292969 37.734375 781.4375 39.972656 C 781.601563 40.136719 781.769531 40.300781 781.933594 40.554688 C 783.421875 41.628906 784.914063 42.703125 786.40625 43.863281 C 786.570313 44.03125 786.738281 44.195313 786.902344 44.441406 C 789.472656 47.671875 791.707031 50.65625 793.53125 54.382813 C 793.53125 54.550781 793.53125 54.714844 793.53125 54.875 C 793.695313 55.046875 793.855469 55.207031 794.109375 55.457031 C 794.4375 55.957031 794.769531 56.535156 795.1875 57.117188 C 795.1875 57.28125 795.1875 57.449219 795.1875 57.695313 C 795.683594 59.683594 796.261719 61.667969 796.839844 63.742188 C 796.839844 63.902344 796.839844 64.074219 796.839844 64.320313 C 797.011719 64.484375 797.171875 64.652344 797.421875 64.816406 C 797.421875 65.316406 797.421875 65.894531 797.421875 66.476563 C 797.089844 66.886719 797.089844 66.886719 797.421875 67.054688 C 797.589844 70.363281 797.753906 73.679688 798 76.996094 C 797.753906 76.996094 797.589844 76.996094 797.421875 76.996094 C 775.886719 76.996094 754.355469 76.996094 732.820313 76.996094 C 733.980469 79.972656 735.21875 81.796875 737.210938 84.199219 C 737.210938 84.363281 737.210938 84.53125 737.210938 84.695313 C 738.703125 85.9375 740.195313 87.261719 741.679688 88.589844 C 741.847656 88.75 742.011719 88.921875 742.179688 89.167969 C 746.070313 91.070313 746.070313 91.070313 750.460938 92.476563 C 750.628906 92.648438 750.789063 92.808594 751.039063 92.980469 C 752.28125 93.140625 753.605469 93.3125 754.933594 93.558594 C 755.097656 93.558594 755.265625 93.558594 755.429688 93.558594 C 756.921875 93.722656 758.410156 93.890625 759.902344 94.136719 C 760.066406 94.300781 760.234375 94.46875 760.398438 94.632813 C 760.566406 94.632813 760.730469 94.632813 760.980469 94.632813 C 761.890625 94.632813 762.800781 94.632813 763.714844 94.632813 C 763.878906 94.632813 764.046875 94.632813 764.292969 94.632813 C 764.292969 94.136719 764.292969 94.136719 769.84375 94.136719 C 769.84375 93.890625 769.84375 93.722656 769.84375 93.558594 C 770.007813 93.558594 770.175781 93.558594 770.339844 93.558594 C 771.828125 93.3125 773.320313 93.140625 774.8125 92.980469 C 774.976563 92.808594 775.144531 92.648438 775.308594 92.476563 C 781.933594 90.492188 781.933594 90.492188 784.171875 89.167969 C 784.335938 89.167969 784.496094 89.167969 784.753906 89.167969 C 788.0625 87.261719 791.375 85.4375 794.691406 83.617188 L 796.878906 82.296875 L 796.839844 83.039063 C 796.347656 89.832031 791.707031 95.707031 787.480469 100.761719 C 787.234375 100.925781 787.070313 101.09375 786.902344 101.257813 C 786.320313 101.425781 785.742188 101.589844 785.246094 101.835938 C 785.078125 102.007813 784.914063 102.167969 784.753906 102.417969 C 784.496094 102.585938 784.335938 102.75 784.171875 102.910156 C 781.933594 104.574219 779.695313 106.226563 777.542969 107.886719 C 777.292969 107.886719 777.132813 107.886719 776.960938 107.886719 C 774.566406 108.792969 772.160156 109.707031 769.84375 110.703125 C 768.183594 111.367188 766.527344 112.109375 764.871094 112.851563 C 764.625 112.851563 764.457031 112.851563 764.292969 112.851563 C 752.121094 114.757813 752.121094 114.757813 744.992188 115.089844 C 744.5 114.757813 744.5 114.757813 744.414063 115.089844 C 743.835938 115.089844 743.257813 115.089844 742.761719 115.089844 Z M 187.851563 112.851563 C 188.015625 112.6875 188.175781 112.523438 188.429688 112.355469 L 193.894531 99.601563 C 194.058594 99.601563 194.226563 99.601563 194.476563 99.601563 C 194.476563 99.433594 194.476563 99.269531 194.476563 99.109375 C 194.476563 77.183594 194.359375 55.300781 194.476563 33.34375 C 194.476563 33.179688 194.476563 33.011719 194.476563 32.847656 C 194.226563 32.847656 194.058594 32.847656 193.894531 32.847656 L 187.929688 19.925781 C 203.914063 19.761719 219.902344 19.679688 235.886719 19.601563 C 235.640625 20.257813 235.46875 21.007813 235.308594 21.75 C 235.136719 21.917969 234.976563 22.082031 234.8125 22.328125 C 233.234375 25.398438 231.660156 28.542969 230.089844 31.6875 C 230.003906 37.902344 229.921875 44.195313 229.84375 50.484375 C 230.003906 50.484375 230.175781 50.484375 230.335938 50.484375 C 243.011719 50.484375 255.679688 50.484375 268.433594 50.484375 C 268.433594 44.773438 268.433594 39.0625 268.433594 33.34375 L 261.808594 19.601563 C 277.957031 19.601563 294.195313 19.601563 310.425781 19.601563 L 304.050781 31.6875 C 304.132813 55.046875 304.210938 78.402344 304.382813 101.835938 L 310.183594 113.429688 C 294.371094 113.269531 277.710938 113.105469 261.894531 112.9375 C 264.128906 107.902344 266.394531 105.257813 268.609375 100.078125 C 268.609375 91.082031 268.523438 82.09375 268.433594 73.101563 C 255.679688 73.101563 243.011719 73.101563 230.335938 73.101563 C 230.175781 73.101563 230.003906 73.101563 229.84375 73.101563 C 229.511719 73.511719 229.511719 73.511719 229.84375 73.679688 C 229.921875 82.707031 230.003906 91.734375 230.089844 100.761719 C 231.992188 104.984375 233.898438 109.210938 235.886719 113.429688 C 219.816406 113.429688 203.835938 113.429688 187.851563 113.429688 C 187.851563 113.183594 187.851563 113.019531 187.851563 112.851563 Z M 535.121094 27.296875 C 534.960938 27.050781 534.789063 26.882813 534.628906 26.71875 C 534.628906 22.496094 534.628906 18.269531 534.628906 14.042969 C 534.789063 14.042969 534.960938 14.042969 535.121094 14.042969 C 548.871094 14.042969 562.707031 14.042969 576.535156 14.042969 C 576.695313 14.042969 576.867188 14.042969 577.113281 14.042969 C 576.949219 18.269531 576.78125 22.496094 576.617188 26.804688 C 562.785156 26.964844 548.957031 27.136719 535.121094 27.296875 Z M 731.160156 63.742188 C 731.160156 62.410156 731.160156 61.089844 731.160156 59.84375 C 731.328125 59.683594 731.492188 59.511719 731.738281 59.351563 C 731.738281 58.769531 731.738281 58.191406 731.738281 57.695313 C 731.738281 57.449219 731.738281 57.28125 731.738281 57.117188 C 731.910156 56.867188 732.070313 56.699219 732.242188 56.535156 C 734.144531 51.066406 734.144531 51.066406 735.054688 49.90625 C 735.054688 49.742188 735.054688 49.574219 735.054688 49.410156 C 735.386719 48.996094 735.71875 48.585938 736.128906 48.253906 C 736.300781 48.089844 736.460938 47.917969 736.714844 47.757813 C 743.75 41.378906 749.136719 42.121094 756.589844 47.757813 C 756.757813 47.917969 756.921875 48.089844 757.089844 48.253906 C 757.996094 49.742188 758.90625 51.234375 759.902344 52.726563 C 759.902344 52.890625 759.902344 53.050781 759.902344 53.222656 C 760.398438 55.207031 760.980469 57.28125 761.558594 59.351563 C 761.726563 59.511719 761.890625 59.683594 762.058594 59.84375 C 762.058594 60.59375 762.058594 61.335938 762.058594 62.085938 C 762.058594 62.25 762.058594 62.410156 762.058594 62.664063 C 762.058594 62.992188 762.058594 63.324219 762.058594 63.742188 C 761.890625 63.742188 761.726563 63.742188 761.558594 63.742188 C 751.617188 63.742188 741.679688 63.742188 731.738281 63.742188 C 731.492188 63.742188 731.328125 63.742188 731.160156 63.742188 Z M 468.367188 98.527344 C 468.117188 98.273438 467.957031 98.109375 467.785156 97.949219 C 467.539063 97.777344 467.378906 97.617188 467.207031 97.445313 C 464.890625 94.300781 462.652344 90.90625 462.238281 86.929688 C 462.074219 86.679688 461.90625 86.519531 461.742188 86.347656 C 460.585938 79.476563 460.667969 72.4375 460.585938 65.394531 C 460.585938 65.148438 460.585938 64.984375 460.585938 64.816406 C 460.585938 64.652344 460.585938 64.484375 460.585938 64.320313 C 460.746094 64.074219 460.914063 63.902344 461.164063 63.742188 C 461.164063 62.828125 461.164063 61.917969 461.164063 61.003906 C 461.324219 60.757813 461.496094 60.59375 461.742188 60.425781 C 461.742188 60.175781 461.742188 60.015625 461.742188 59.84375 C 461.742188 59.433594 461.742188 59.101563 461.742188 58.769531 C 461.742188 58.523438 461.742188 58.355469 461.742188 58.191406 C 461.90625 58.027344 462.074219 57.859375 462.238281 57.695313 C 462.40625 56.949219 462.570313 56.203125 462.816406 55.457031 C 462.988281 55.207031 463.148438 55.046875 463.398438 54.875 C 463.398438 54.714844 463.398438 54.550781 463.398438 54.382813 C 464.0625 52.890625 464.804688 51.398438 465.554688 49.90625 C 465.554688 49.742188 465.554688 49.574219 465.554688 49.410156 C 465.886719 48.996094 466.296875 48.585938 466.714844 48.253906 C 466.875 48.089844 467.046875 47.917969 467.207031 47.757813 C 467.539063 47.507813 467.957031 47.339844 468.367188 47.175781 C 468.535156 47.253906 468.699219 47.339844 468.863281 47.425781 C 468.945313 47.339844 469.03125 47.253906 469.195313 47.175781 C 469.03125 46.929688 468.945313 46.761719 468.863281 46.597656 C 469.363281 46.019531 469.941406 45.4375 470.523438 44.9375 C 470.6875 44.773438 470.855469 44.609375 471.101563 44.441406 C 474 43.367188 475.65625 42.949219 478.800781 42.789063 C 478.972656 42.789063 479.132813 42.789063 479.382813 42.789063 C 480.792969 43.699219 482.277344 44.609375 483.769531 45.515625 C 483.941406 45.6875 484.105469 45.847656 484.351563 46.097656 C 484.519531 46.265625 484.683594 46.429688 484.929688 46.597656 C 486.011719 47.835938 487.085938 49.164063 488.246094 50.484375 C 488.40625 50.65625 488.578125 50.816406 488.738281 51.066406 C 488.910156 51.398438 489.074219 51.730469 489.320313 52.148438 C 489.320313 52.308594 489.320313 52.472656 489.320313 52.726563 C 489.488281 52.890625 489.652344 53.050781 489.898438 53.222656 C 490.070313 53.714844 490.230469 54.296875 490.394531 54.875 C 490.5625 55.046875 490.734375 55.207031 490.980469 55.457031 C 491.722656 60.425781 492.832031 65.355469 493.214844 70.363281 C 493.253906 70.890625 493.242188 70.578125 493.214844 70.945313 C 492.800781 76.53125 492.878906 77.984375 492.636719 83.039063 C 492.621094 83.339844 492.167969 83.339844 492.054688 83.617188 C 491.992188 83.769531 492.113281 83.957031 492.054688 84.199219 C 491.535156 86.359375 490.894531 88.589844 490.394531 90.824219 C 490.394531 90.992188 490.394531 91.15625 490.394531 91.316406 C 489.984375 91.820313 489.652344 92.398438 489.320313 92.980469 C 489.074219 93.140625 488.910156 93.3125 488.738281 93.558594 C 488.738281 93.722656 488.738281 93.890625 488.738281 94.136719 C 487.25 95.792969 485.757813 97.445313 484.351563 99.109375 C 484.105469 99.269531 483.941406 99.433594 483.769531 99.601563 C 481.867188 101.257813 481.867188 101.257813 479.960938 101.835938 C 479.714844 102.007813 479.550781 102.167969 479.382813 102.417969 C 474.582031 102.835938 472.101563 101.34375 468.367188 98.527344 Z M 354.574219 95.792969 C 349.152344 95.792969 348.019531 90.144531 349.109375 86.347656 C 349.511719 84.914063 351.171875 83.867188 352.417969 83.039063 C 354.238281 82.460938 356.03125 81.75 357.882813 81.378906 C 358.539063 81.25 358.433594 81.078125 359.039063 80.882813 C 360.820313 80.304688 362.683594 80.015625 364.503906 79.722656 C 366.765625 79.367188 371.089844 77.28125 373.371094 76.414063 L 374.445313 75.914063 C 376.269531 74.925781 378.09375 74.011719 379.992188 73.101563 C 379.992188 74.589844 379.992188 76.148438 379.414063 77.574219 C 376.464844 84.851563 371.476563 88.632813 365.085938 92.980469 C 364.238281 93.550781 360.546875 94.730469 359.542969 95.214844 C 358.039063 95.929688 356.246094 95.792969 354.574219 95.792969 "/>
</g>
</svg>
