<svg xmlns="http://www.w3.org/2000/svg" width="170" height="16.67" viewBox="0 0 170 16.67"><defs><style>.cls-1{fill:#231916;fill-rule:evenodd;}</style></defs><title>kiden-logo_2</title><g id="Capa_2" data-name="Capa 2"><g id="Capa_1-2" data-name="Capa 1"><path class="cls-1" d="M123.7,3.47v1.6h14.06V3.47Zm6.77,10.82h5.9c1.1,0,1.37-.3,1.37-1.26V11.34h-7.27Zm7.7,2.37H125.22V9h17.72v4.11c0,2.5-.95,3.58-3.08,3.58Zm0-15.56h1.74c2,0,3,.82,3,2.86V7.44H123.7v5.79c0,2.09-.69,3.44-2.83,3.44H118V14.3h.48V1.1h10.18V0h5.14V1.1Z"/><path class="cls-1" d="M151.74,10.35V8.1h-1.15v2.25Zm6.33,0V8.1h-1.14v2.25Zm6.34,0V8.1h-1.15v2.25Zm-1.15-6.88V5.72h1.15V3.47Zm-6.33,0V5.72h1.14V3.47Zm-6.34,0V5.72h1.15V3.47Zm4,10.3-.52.81c-1,1.48-1.27,2.09-4.28,2.09H145V14.3h4.06l.35-.53Zm5.84,0,.52.81c1,1.48,1.27,2.09,4.28,2.09H170V14.3h-4.06l-.35-.53Zm-15-12.68h6.33V0h5.19V1.09h1.14V0h5.19V1.09h4.2a1.88,1.88,0,0,1,2.13,2.07v7.19H170v2.37H145V10.35h.41Z"/><path class="cls-1" d="M113.33,12.41l0-12.41h-5.13V11.56L96.5,1.18c-2.08-1.82-8.18-2-8.17,3.08l0,12.4h5.13V5.1l11.67,10.39c2.09,1.82,8.18,2,8.17-3.08"/><path class="cls-1" d="M5.17,5.55,15.45,0H25L9.59,8.32l15.35,8.35H15.36L5.17,11.11v5.56H0V0H5.17Z"/><path class="cls-1" d="M39.4,12.42V4.16h9.87a20.49,20.49,0,0,1,3,.13,2,2,0,0,1,1.21.58A2.48,2.48,0,0,1,54,6.06a13.38,13.38,0,0,1,.15,2.33,11.3,11.3,0,0,1-.18,2.34,2,2,0,0,1-.58,1.12,2.61,2.61,0,0,1-1.31.44,19.5,19.5,0,0,1-2.73.13Zm-5.15,4.25V0H49.4c2.13,0,3.38,0,4,.05a13.07,13.07,0,0,1,2.07.27,4,4,0,0,1,3.26,2.83A8.46,8.46,0,0,1,59.15,5c.07.67.1,1.68.1,3s0,2.64-.12,3.4a9.2,9.2,0,0,1-.43,2.09,3.92,3.92,0,0,1-3.07,2.7,16.2,16.2,0,0,1-2.32.33c-.82.05-2,.08-3.9.08Z"/><path class="cls-1" d="M66.48,10.6H86.29V6.07H66.44V4.46H86.29V0H65.63c-2,0-4.29,2-4.34,4h0v8.77h0c.05,1.95,2.3,3.94,4.34,4H86.29V12.21H66.44V10.6Z"/><polygon class="cls-1" points="27.04 0 27.06 16.67 32.21 16.67 32.21 0 27.04 0"/></g></g></svg>